<?xml version="1.0" encoding="utf-8"?>
<!-- Generator: Adobe Illustrator 22.1.0, SVG Export Plug-In . SVG Version: 6.00 Build 0)  -->
<svg version="1.1" id="Layer_1" xmlns="http://www.w3.org/2000/svg" xmlns:xlink="http://www.w3.org/1999/xlink" x="0px" y="0px"
	 viewBox="0 0 38 76" style="enable-background:new 0 0 38 76;" xml:space="preserve">
<style type="text/css">
	.st0{fill:#FCFDFF;stroke:#000000;stroke-width:0.25;stroke-miterlimit:10;}
	.st1{fill:#FFCC05;stroke:#000000;stroke-width:0.25;stroke-miterlimit:10;}
</style>
<g>
	<path class="st0" d="M31.4,75.4H6.6c-3.3,0-6-2.7-6-6V6.6c0-3.3,2.7-6,6-6h24.7c3.3,0,6,2.7,6,6v62.7
		C37.4,72.8,34.6,75.4,31.4,75.4z M6.6,3.6c-1.6,0-3,1.3-3,3v62.7c0,1.6,1.3,3,3,3h24.7c1.6,0,3-1.3,3-3V6.6c0-1.6-1.3-3-3-3H6.6z"
		/>
	<path class="st1" d="M24.9,14.1H13.1c-1.4,0-2.6-1.2-2.6-2.6l0,0c0-1.4,1.2-2.6,2.6-2.6h11.7c1.4,0,2.6,1.2,2.6,2.6l0,0
		C27.4,13,26.3,14.1,24.9,14.1z"/>
	<circle class="st1" cx="19.1" cy="63.3" r="4"/>
</g>
</svg>
